<svg width="24" height="24" viewBox="0 0 24 24" fill="none" xmlns="http://www.w3.org/2000/svg">
<path fill-rule="evenodd" clip-rule="evenodd" d="M17.8653 10C17.8653 14.3439 14.3439 17.8653 10 17.8653C5.65613 17.8653 2.13472 14.3439 2.13472 10C2.13472 5.65613 5.65613 2.13472 10 2.13472C14.3439 2.13472 17.8653 5.65613 17.8653 10ZM16.2397 17.8149C14.5293 19.1824 12.3601 20 10 20C4.47715 20 0 15.5228 0 10C0 4.47715 4.47715 0 10 0C15.5228 0 20 4.47715 20 10C20 12.4213 19.1395 14.6416 17.7075 16.3718L23.4853 22.5L22.0711 24L16.2397 17.8149ZM9 9V5H11V9H15V11H11V15H9V11H5V9H9Z" fill="black"/>
</svg>
