<svg xmlns="http://www.w3.org/2000/svg" width="24" height="23" viewBox="0 0 24 23">
  <g transform="translate(5 2)">
    <path d="M7,3 C7.7880508,3 8.5456865,3.13022254 9.25256217,3.37032271 L8.50751254,5.23126725 C8.03181011,5.08102747 7.52536754,5 7,5 C4.23857625,5 2,7.23857625 2,10 C2,11.6194003 2.77383624,13.1045289 4.05102078,14.0384348 L4.24633977,14.1743344 L4.96836649,14.6519738 L5.199,16 L8.801,16 L9.03163351,14.6519738 L9.75366023,14.1743344 C11.1468455,13.2527061 12,11.7003703 12,10 C12,9.65746775 11.9655564,9.32298024 11.8999437,8.99981203 L13.92911,8.99999177 C13.9758276,9.32659738 14,9.66047581 14,10 C14,12.4406653 12.7509087,14.5895897 10.8571171,15.842382 L10.5044771,17.9047893 C10.2130997,19.6128636 8.73274885,20.862069 7,20.862069 C5.26725115,20.862069 3.78690027,19.6128636 3.49552289,17.9047893 L3.14288288,15.842382 C1.24909133,14.5895897 0,12.4406653 0,10 C0,6.13400675 3.13400675,3 7,3 Z M8.39153121,18.0014457 L5.60817776,18.0011124 C5.86561097,18.5173399 6.39797978,18.862069 7,18.862069 C7.60174291,18.862069 8.13389856,18.5176574 8.39153121,18.0014457 Z"/>
    <rect width="2" height="4" x="6" y="11" opacity=".5"/>
    <path d="M12.0699463,6.68627914 L12.3130537,6.08072086 C12.3891386,5.89120016 12.5728351,5.767 12.7770581,5.767 L14.6839419,5.767 C14.8881649,5.767 15.0718614,5.89120016 15.1479463,6.08072086 L15.3910537,6.68627914 C15.4671386,6.87579984 15.6508351,7 15.8550581,7 L16.6166634,7 C16.8928058,7 17.1166634,6.77614237 17.1166634,6.5 C17.1166634,6.43309218 17.1032348,6.36686488 17.0771731,6.30524149 L14.7100926,0.708241492 C14.631845,0.523223836 14.4504665,0.403 14.2495829,0.403 L13.2474171,0.403 C13.0465335,0.403 12.865155,0.523223836 12.7869074,0.708241492 L10.4198269,6.30524149 C10.3122648,6.55957394 10.4312456,6.85294748 10.6855781,6.96050963 C10.7472014,6.98657137 10.8134287,7 10.8803366,7 L11.6059419,7 C11.8101649,7 11.9938614,6.87579984 12.0699463,6.68627914 Z M14.1966273,4.381 L13.2656654,4.381 C13.1552085,4.381 13.0656654,4.29145695 13.0656654,4.181 C13.0656654,4.15550142 13.0705413,4.13023805 13.0800305,4.10657092 L13.5482658,2.9387371 C13.5893718,2.83621378 13.7058064,2.78642525 13.8083298,2.8275313 C13.8592914,2.84796403 13.8996118,2.88844894 13.919837,2.93949331 L14.3825636,4.10732713 C14.423252,4.21001691 14.3729899,4.3262479 14.2703002,4.3669363 C14.2468491,4.37622821 14.221852,4.381 14.1966273,4.381 Z" opacity=".5"/>
  </g>
</svg>
