<svg xmlns="http://www.w3.org/2000/svg" width="24" height="23" viewBox="0 0 24 23">
  <g fill="none" fill-rule="evenodd">
    <path fill="#000" fill-rule="nonzero" d="M7,0 C10.8659932,0 14,3.13400675 14,7 C14,9.44066529 12.7509087,11.5895897 10.8571171,12.842382 L10.5044771,14.9047893 C10.2130997,16.6128636 8.73274885,17.862069 7,17.862069 C5.26725115,17.862069 3.78690027,16.6128636 3.49552289,14.9047893 L3.14288288,12.842382 C1.24909133,11.5895897 0,9.44066529 0,7 C0,3.13400675 3.13400675,0 7,0 Z M7,2 C4.23857625,2 2,4.23857625 2,7 C2,8.61940029 2.77383624,10.1045289 4.05102078,11.0384348 L4.24633977,11.1743344 L4.96836649,11.6519738 L5.46704264,14.5684713 C5.59449935,15.3156312 6.24204667,15.862069 7,15.862069 C7.71058125,15.862069 8.32412597,15.3818014 8.5031713,14.7055014 L8.53308705,14.5677119 L9.03163351,11.6519738 L9.75366023,11.1743344 C11.1468455,10.2527061 12,8.7003703 12,7 C12,4.23857625 9.76142375,2 7,2 Z" transform="translate(5 5)"/>
    <rect width="2" height="3" x="11" fill="#000" opacity=".593" rx="1"/>
    <rect width="2" height="3" x="21.5" y="10.5" fill="#000" opacity=".593" rx="1" transform="rotate(90 22.5 12)"/>
    <rect width="2" height="3" x=".5" y="10.5" fill="#000" opacity=".593" rx="1" transform="rotate(90 1.5 12)"/>
    <rect width="2" height="3" x="19" y="3.268" fill="#000" opacity=".593" rx="1" transform="rotate(45 20 4.768)"/>
    <rect width="2" height="3" x="3" y="3.268" fill="#000" opacity=".593" rx="1" transform="scale(-1 1) rotate(45 0 -4.89)"/>
    <path fill="#000" d="M12,13 C12.5522847,13 13,13.4477153 13,14 L13,16 C13,16.5522847 12.5522847,17 12,17 C11.4477153,17 11,16.5522847 11,16 L11,14 C11,13.4477153 11.4477153,13 12,13 Z"/>
    <rect width="4" height="2" x="10" y="18" fill="#000"/>
  </g>
</svg>
