<svg width="24" height="24" viewBox="0 0 24 24" fill="none" xmlns="http://www.w3.org/2000/svg">
<path fill-rule="evenodd" clip-rule="evenodd" d="M4.70711 3.29289C4.31658 2.90237 3.68342 2.90237 3.29289 3.29289C2.90237 3.68342 2.90237 4.31658 3.2929 4.70711L10.364 11.7782L3.29289 18.8492C2.90237 19.2398 2.90237 19.8729 3.29289 20.2635C3.68342 20.654 4.31658 20.654 4.70711 20.2635L11.7782 13.1924L18.8492 20.2635C19.2398 20.654 19.8729 20.654 20.2635 20.2635C20.654 19.8729 20.654 19.2398 20.2635 18.8492L13.1924 11.7782L20.2635 4.70711C20.654 4.31659 20.654 3.68342 20.2635 3.2929C19.8729 2.90237 19.2398 2.90237 18.8492 3.2929L11.7782 10.364L4.70711 3.29289Z" fill="white"/>
</svg>
