<svg width="56" height="56" viewBox="0 0 56 56" fill="none" xmlns="http://www.w3.org/2000/svg">
<g id="logo">
<g id="Union">
<mask id="path-2-inside-1" fill="white">
<path fill-rule="evenodd" clip-rule="evenodd" d="M0 0H56L56 29.8261L54.1739 29.8261L52.3478 29.8261L19.118 29.8261L31.4955 42.2036L28.913 44.7861L12.8341 28.7071C12.4435 28.3166 12.4435 27.6834 12.8341 27.2929L28.913 11.2139L31.4955 13.7964L19.118 26.1739H52.3478V3.65217H3.65217V52.3478H52.3478V44.7391H56L56 56H0V0Z"/>
</mask>
<path fill-rule="evenodd" clip-rule="evenodd" d="M0 0H56L56 29.8261L54.1739 29.8261L52.3478 29.8261L19.118 29.8261L31.4955 42.2036L28.913 44.7861L12.8341 28.7071C12.4435 28.3166 12.4435 27.6834 12.8341 27.2929L28.913 11.2139L31.4955 13.7964L19.118 26.1739H52.3478V3.65217H3.65217V52.3478H52.3478V44.7391H56L56 56H0V0Z" fill="#988F75"/>
<path d="M56 0L57 -1.27898e-07V-1H56V0ZM0 0V-1H-1V0H0ZM56 29.8261V30.8261L57 30.8261V29.8261H56ZM54.1739 29.8261V30.8261V29.8261ZM52.3478 29.8261V28.8261V29.8261ZM19.118 29.8261V28.8261H16.7038L18.4109 30.5332L19.118 29.8261ZM31.4955 42.2036L32.2026 42.9107L32.9097 42.2036L32.2026 41.4965L31.4955 42.2036ZM28.913 44.7861L28.2059 45.4932L28.913 46.2003L29.6201 45.4932L28.913 44.7861ZM12.8341 28.7071L13.5412 28H13.5412L12.8341 28.7071ZM12.8341 27.2929L12.1269 26.5858L12.1269 26.5858L12.8341 27.2929ZM28.913 11.2139L29.6202 10.5068L28.913 9.79969L28.2059 10.5068L28.913 11.2139ZM31.4955 13.7964L32.2026 14.5035L32.9097 13.7964L32.2026 13.0893L31.4955 13.7964ZM19.118 26.1739L18.4109 25.4668L16.7038 27.1739H19.118V26.1739ZM52.3478 26.1739V27.1739H53.3478V26.1739H52.3478ZM52.3478 3.65217H53.3478V2.65217H52.3478V3.65217ZM3.65217 3.65217V2.65217H2.65217V3.65217H3.65217ZM3.65217 52.3478H2.65217V53.3478H3.65217V52.3478ZM52.3478 52.3478V53.3478H53.3478V52.3478H52.3478ZM52.3478 44.7391V43.7391H51.3478V44.7391H52.3478ZM56 44.7391H57V43.7391H56V44.7391ZM56 56V57H57V56H56ZM0 56H-1V57H0V56ZM56 -1H0V1H56V-1ZM57 29.8261L57 -1.27898e-07L55 1.27898e-07L55 29.8261H57ZM54.1739 30.8261L56 30.8261V28.8261L54.1739 28.8261V30.8261ZM52.3478 30.8261L54.1739 30.8261V28.8261L52.3478 28.8261V30.8261ZM19.118 30.8261L52.3478 30.8261V28.8261L19.118 28.8261V30.8261ZM32.2026 41.4965L19.8251 29.119L18.4109 30.5332L30.7884 42.9107L32.2026 41.4965ZM29.6201 45.4932L32.2026 42.9107L30.7884 41.4965L28.2059 44.079L29.6201 45.4932ZM12.1269 29.4142L28.2059 45.4932L29.6202 44.079L13.5412 28L12.1269 29.4142ZM12.1269 26.5858C11.3459 27.3668 11.3459 28.6332 12.1269 29.4142L13.5412 28H13.5412L12.1269 26.5858ZM28.2059 10.5068L12.1269 26.5858L13.5412 28L29.6202 11.921L28.2059 10.5068ZM32.2026 13.0893L29.6202 10.5068L28.2059 11.921L30.7884 14.5035L32.2026 13.0893ZM19.8251 26.881L32.2026 14.5035L30.7884 13.0893L18.4109 25.4668L19.8251 26.881ZM52.3478 25.1739H19.118V27.1739H52.3478V25.1739ZM51.3478 3.65217V26.1739H53.3478V3.65217H51.3478ZM3.65217 4.65217H52.3478V2.65217H3.65217V4.65217ZM4.65217 52.3478V3.65217H2.65217V52.3478H4.65217ZM52.3478 51.3478H3.65217V53.3478H52.3478V51.3478ZM51.3478 44.7391V52.3478H53.3478V44.7391H51.3478ZM56 43.7391H52.3478V45.7391H56V43.7391ZM57 56L57 44.7391H55L55 56H57ZM0 57H56V55H0V57ZM-1 0V56H1V0H-1Z" fill="#988F75" mask="url(#path-2-inside-1)"/>
</g>
</g>
</svg>
